<?xml version="1.0" encoding="utf-8"?>
<!-- Generator: Adobe Illustrator 28.0.0, SVG Export Plug-In . SVG Version: 6.00 Build 0)  -->
<svg version="1.1" id="Capa_1" xmlns="http://www.w3.org/2000/svg" xmlns:xlink="http://www.w3.org/1999/xlink" x="0px" y="0px"
	 viewBox="0 0 300 300" style="enable-background:new 0 0 300 300;" xml:space="preserve">
<style type="text/css">
	.st0{fill:#FFFFFF;}
</style>
<g>
	<g>
		<path class="st0" d="M150,5C69.91,5,5,69.91,5,150s64.93,145,145,145c80.09,0,145-64.93,145-145C295,69.91,230.09,5,150,5z
			 M235,183.94c0,28.15-22.91,51.06-51.06,51.06h-67.88C87.9,235,65,212.09,65,183.94v-67.88C65,87.9,87.91,65,116.06,65h67.88
			C212.09,65,235,87.91,235,116.06V183.94z"/>
		<path class="st0" d="M150,123.19c-14.78,0-26.83,12.03-26.83,26.83c0,14.78,12.03,26.83,26.83,26.83
			c14.78,0,26.81-12.03,26.81-26.83C176.81,135.22,164.78,123.19,150,123.19z"/>
		<path class="st0" d="M183.94,80.99h-67.88c-19.34,0-35.07,15.73-35.07,35.07v67.88c0,19.34,15.73,35.07,35.07,35.07h67.88
			c19.34,0,35.07-15.73,35.07-35.07v-67.88C219.01,96.71,203.27,80.99,183.94,80.99z M150,191.87c-23.08,0-41.87-18.78-41.87-41.87
			s18.78-41.87,41.87-41.87c23.08,0,41.87,18.78,41.87,41.87C191.87,173.08,173.08,191.87,150,191.87z M191.87,118.1
			c-5.5,0-9.96-4.46-9.96-9.97c0-5.5,4.46-9.96,9.96-9.96c5.5,0,9.97,4.46,9.97,9.96C201.83,113.63,197.37,118.1,191.87,118.1z"/>
	</g>
</g>
</svg>
