<?xml version="1.0" encoding="utf-8"?>
<!-- Generator: Adobe Illustrator 28.0.0, SVG Export Plug-In . SVG Version: 6.00 Build 0)  -->
<svg version="1.1" id="Capa_1" xmlns="http://www.w3.org/2000/svg" xmlns:xlink="http://www.w3.org/1999/xlink" x="0px" y="0px"
	 viewBox="0 0 300 300" style="enable-background:new 0 0 300 300;" xml:space="preserve">
<style type="text/css">
	.st0{fill:#FFFFFF;}
</style>
<g>
	<path class="st0" d="M181.09,148.7l-49.51-26.94c-2.03-1.16-8.98,0.31-8.98,2.64v52.52c0,2.31,6.89,3.77,8.92,2.68l51.72-25.59
		C185.34,152.89,183.16,149.88,181.09,148.7z"/>
	<path class="st0" d="M150,5.01C69.92,5.01,5.01,69.92,5.01,150c0,80.08,64.92,144.99,144.99,144.99
		c80.08,0,144.99-64.92,144.99-144.99C294.99,69.92,230.08,5.01,150,5.01z M251.07,176.84c0,24.91-20.19,45.1-45.11,45.1H90.63
		c-24.91,0-45.11-20.19-45.11-45.1v-53.67c0-24.91,20.19-45.11,45.11-45.11h115.34c24.91,0,45.11,20.2,45.11,45.11V176.84z"/>
</g>
</svg>
